<?xml version="1.0" encoding="UTF-8"?>
<svg id="Layer_1" xmlns="http://www.w3.org/2000/svg" version="1.1" viewBox="0 0 16 16">
  <!-- Generator: Adobe Illustrator 30.1.0, SVG Export Plug-In . SVG Version: 2.1.1 Build 136)  -->
  <defs>
    <style>
      .st0 {
        fill: #0c314e;
      }

      .st1 {
        fill: #fbf7e6;
      }

      .st2 {
        fill: #1c4d76;
      }

      .st3 {
        fill: #ea8325;
      }

      .st4 {
        fill: #21323b;
      }

      .st5 {
        fill: #fcf8e9;
      }

      .st6 {
        fill: #eb8629;
      }

      .st7 {
        fill: #1c4b74;
      }

      .st8 {
        fill: #0b2f4a;
      }

      .st9 {
        fill: #0b2f4d;
      }

      .st10 {
        fill: #243a45;
      }
    </style>
  </defs>
  <path class="st7" d="M12.66,3.38l.03.09-2.08,2.07c-.06.07-.14.06-.24-.03l-.09.05c-.57-.28-1.06.19-.86.78-1.16,1.24-2.4,2.48-3.62,3.67-.6-.19-1.08.32-.76.88l-.03.1.03.09c-.53.53-1.07,1.06-1.61,1.6l-.09-.02-1.18-.43-1.53,1.5c-.29-.83-.11-1.71.42-2.4s1.27-1.02,2.11-.99c.43.02.81-.14,1.1-.44l4.4-4.43,1.25-1.28c.25-.26.44-.54.43-.92-.04-.86.33-1.69.99-2.2s1.6-.7,2.45-.42l-1.51,1.53.39,1.22Z"/>
  <path class="st2" d="M9.57,3.65l-.99,1.01H.67S3.64,1.66,3.64,1.66h6.44c-.25.5-.35,1.01-.34,1.56.03.17-.06.3-.17.43Z"/>
  <path class="st9" d="M6.09,13.99c.1-.41.18-.81.16-1.23-.02-.19.07-.32.19-.44l1.33-1.32h7.59s-2.96,3-2.96,3h-6.31Z"/>
  <path class="st8" d="M9.45,8.42l-3.34,3.38c-.3.3-.47.61-.45,1.04.04.84-.34,1.62-1.01,2.12-.69.51-1.59.69-2.39.38l1.49-1.53-.39-1.18,1.67-1.66.1-.02c.54.43,1.17-.11.92-.74l.04-.08,1.81-1.83h1.5s.06.1.06.1Z"/>
  <path class="st0" d="M8.75,7.6l.02-.16c.26-.32.54-.6.86-.86.66.18,1.15-.36.72-.96l.02-.11h.14s2.15-2.12,2.15-2.12l1.18.4,1.52-1.52c.33.99.06,2.08-.7,2.78-.51.47-1.17.71-1.86.67-.44-.03-.77.15-1.08.45l-1.46,1.44h-1.51Z"/>
  <g>
    <path class="st3" d="M12.31,9.02c.26.15.36.45.3.71-.07.28-.3.46-.57.49-.31.03-.54-.15-.69-.42-.31-.06-.67.06-.96-.04-.31-.17-.52-.52-.82-.75.07-.14.17-.24.3-.29l.65.59c.23.08.58.03.84.02.2-.34.53-.53.95-.3Z"/>
    <circle class="st1" cx="11.96" cy="9.57" r=".24"/>
  </g>
  <g>
    <path class="st6" d="M10.37,5.51c.3.36.31.71.02,1.03-.2.23-.5.15-.73.12-.33.27-.64.62-.91.94-.11.13-.29.18-.33.35h2.5s.87-.88.87-.88l.54-.54,1.35-.06c.18-.2.38-.42.68-.39.25.02.49.16.59.44.12.35-.09.73-.41.83-.36.11-.69-.04-.85-.39h-1.18s-.61.63-.61.63c-.11.11-.26.19-.3.35h.91c.14-.31.45-.5.75-.42s.54.35.53.66c-.01.33-.24.58-.56.64-.31.06-.59-.13-.74-.43l-3.04.02-1.53-.02-1.81,1.84c.14.33.04.66-.22.85s-.66.15-.87-.11-.2-.61-.03-.84c.18-.24.48-.31.8-.21l3.56-3.6c-.12-.33-.02-.62.21-.81s.56-.15.82-.01Z"/>
    <circle class="st10" cx="9.94" cy="6.05" r=".26"/>
    <circle class="st4" cx="5.51" cy="10.54" r=".26"/>
    <circle class="st1" cx="13.11" cy="8.17" r=".25"/>
    <circle class="st5" cx="14.31" cy="6.74" r=".24"/>
  </g>
</svg>